<mxfile host="65bd71144e">
    <diagram id="X-gvErfspeShjWXAeoVf" name="Page-1">
        <mxGraphModel dx="1110" dy="828" grid="1" gridSize="10" guides="1" tooltips="1" connect="1" arrows="1" fold="1" page="1" pageScale="1" pageWidth="827" pageHeight="1169" math="0" shadow="0">
            <root>
                <mxCell id="0"/>
                <mxCell id="1" parent="0"/>
                <mxCell id="2" value="" style="whiteSpace=wrap;html=1;aspect=fixed;" vertex="1" parent="1">
                    <mxGeometry x="100" y="100" width="680" height="680" as="geometry"/>
                </mxCell>
                <mxCell id="5" value="" style="rounded=0;whiteSpace=wrap;html=1;" vertex="1" parent="1">
                    <mxGeometry x="263.5" y="130" width="376.5" height="220" as="geometry"/>
                </mxCell>
                <mxCell id="6" value="Menu déroulant (statut)" style="rounded=0;whiteSpace=wrap;html=1;" vertex="1" parent="1">
                    <mxGeometry x="352" y="260" width="176" height="30" as="geometry"/>
                </mxCell>
                <mxCell id="7" value="Tâche 1" style="whiteSpace=wrap;html=1;aspect=fixed;" vertex="1" parent="1">
                    <mxGeometry x="150" y="400" width="120" height="120" as="geometry"/>
                </mxCell>
                <mxCell id="8" value="Tâche 2" style="whiteSpace=wrap;html=1;aspect=fixed;" vertex="1" parent="1">
                    <mxGeometry x="354" y="400" width="120" height="120" as="geometry"/>
                </mxCell>
                <mxCell id="9" value="Tâche 3" style="whiteSpace=wrap;html=1;aspect=fixed;" vertex="1" parent="1">
                    <mxGeometry x="550" y="400" width="120" height="120" as="geometry"/>
                </mxCell>
                <mxCell id="10" value="Tâche 4" style="whiteSpace=wrap;html=1;aspect=fixed;" vertex="1" parent="1">
                    <mxGeometry x="150" y="585" width="120" height="120" as="geometry"/>
                </mxCell>
                <mxCell id="11" value="Tâche 5" style="whiteSpace=wrap;html=1;aspect=fixed;" vertex="1" parent="1">
                    <mxGeometry x="354" y="585" width="120" height="120" as="geometry"/>
                </mxCell>
                <mxCell id="12" value="Tâche 6" style="whiteSpace=wrap;html=1;aspect=fixed;" vertex="1" parent="1">
                    <mxGeometry x="550" y="585" width="120" height="120" as="geometry"/>
                </mxCell>
                <mxCell id="14" value="Zone de texte" style="rounded=0;whiteSpace=wrap;html=1;" vertex="1" parent="1">
                    <mxGeometry x="348.5" y="210" width="183" height="40" as="geometry"/>
                </mxCell>
                <mxCell id="15" value="Titre de la tâche" style="rounded=0;whiteSpace=wrap;html=1;" vertex="1" parent="1">
                    <mxGeometry x="352" y="140" width="180" height="60" as="geometry"/>
                </mxCell>
                <mxCell id="16" value="Bouton ajouter tâche" style="rounded=0;whiteSpace=wrap;html=1;" vertex="1" parent="1">
                    <mxGeometry x="367.5" y="310" width="145" height="30" as="geometry"/>
                </mxCell>
                <mxCell id="17" value="Supprimer tâche" style="rounded=0;whiteSpace=wrap;html=1;" vertex="1" parent="1">
                    <mxGeometry x="160" y="480" width="100" height="20" as="geometry"/>
                </mxCell>
                <mxCell id="18" value="Bouton statut" style="rounded=0;whiteSpace=wrap;html=1;" vertex="1" parent="1">
                    <mxGeometry x="160" y="500" width="100" height="20" as="geometry"/>
                </mxCell>
                <mxCell id="19" value="Supprimer tâche" style="rounded=0;whiteSpace=wrap;html=1;" vertex="1" parent="1">
                    <mxGeometry x="364" y="480" width="100" height="20" as="geometry"/>
                </mxCell>
                <mxCell id="20" value="Bouton statut" style="rounded=0;whiteSpace=wrap;html=1;" vertex="1" parent="1">
                    <mxGeometry x="364" y="500" width="100" height="20" as="geometry"/>
                </mxCell>
                <mxCell id="21" value="Supprimer tâche" style="rounded=0;whiteSpace=wrap;html=1;" vertex="1" parent="1">
                    <mxGeometry x="560" y="480" width="100" height="20" as="geometry"/>
                </mxCell>
                <mxCell id="22" value="Bouton statut" style="rounded=0;whiteSpace=wrap;html=1;" vertex="1" parent="1">
                    <mxGeometry x="560" y="500" width="100" height="20" as="geometry"/>
                </mxCell>
                <mxCell id="23" value="Supprimer tâche" style="rounded=0;whiteSpace=wrap;html=1;" vertex="1" parent="1">
                    <mxGeometry x="160" y="665" width="100" height="20" as="geometry"/>
                </mxCell>
                <mxCell id="24" value="Bouton statut" style="rounded=0;whiteSpace=wrap;html=1;" vertex="1" parent="1">
                    <mxGeometry x="160" y="685" width="100" height="20" as="geometry"/>
                </mxCell>
                <mxCell id="25" value="Supprimer tâche" style="rounded=0;whiteSpace=wrap;html=1;" vertex="1" parent="1">
                    <mxGeometry x="364" y="665" width="100" height="20" as="geometry"/>
                </mxCell>
                <mxCell id="26" value="Bouton statut" style="rounded=0;whiteSpace=wrap;html=1;" vertex="1" parent="1">
                    <mxGeometry x="364" y="685" width="100" height="20" as="geometry"/>
                </mxCell>
                <mxCell id="27" value="Supprimer tâche" style="rounded=0;whiteSpace=wrap;html=1;" vertex="1" parent="1">
                    <mxGeometry x="560" y="665" width="100" height="20" as="geometry"/>
                </mxCell>
                <mxCell id="28" value="Bouton statut" style="rounded=0;whiteSpace=wrap;html=1;" vertex="1" parent="1">
                    <mxGeometry x="560" y="685" width="100" height="20" as="geometry"/>
                </mxCell>
            </root>
        </mxGraphModel>
    </diagram>
</mxfile>